<svg xmlns="http://www.w3.org/2000/svg" width="900" height="600" viewBox="0 0 900 600" fill="none">
  <defs>
    <pattern id="grid" width="120" height="120" patternUnits="userSpaceOnUse">
      <path d="M120 0H0V120" stroke="#E7EBF2" stroke-width="1"/>
    </pattern>
    <filter id="shadow" x="0" y="0" width="900" height="600" filterUnits="userSpaceOnUse">
      <feDropShadow dx="0" dy="6" stdDeviation="8" flood-color="#AEB9C8" flood-opacity="0.18"/>
    </filter>
  </defs>

  <rect width="900" height="600" fill="#F6F8FC"/>
  <rect width="900" height="600" fill="url(#grid)" opacity="0.8"/>

  <rect x="76" y="84" width="748" height="432" rx="28" fill="#F8FAFD" stroke="#D9E0EA" stroke-width="2" filter="url(#shadow)"/>
  <line x1="136" y1="300" x2="764" y2="300" stroke="#E5EAF1" stroke-width="2"/>

  <g transform="translate(238 256)">
    <rect x="0" y="0" width="204" height="88" rx="14" fill="#FFFFFF" stroke="#C7D0DC" stroke-width="2"/>
    <text x="28" y="56" fill="#0F172A" font-size="54" font-family="Arial, Helvetica, sans-serif" transform="scale(0.55)">Button</text>
    <path d="M152 44H174" stroke="#0F172A" stroke-width="4" stroke-linecap="round"/>
    <path d="M166 36L174 44L166 52" stroke="#0F172A" stroke-width="4" stroke-linecap="round" stroke-linejoin="round"/>
  </g>

  <g transform="translate(460 256)">
    <rect x="0" y="0" width="236" height="88" rx="14" fill="#16A34A" stroke="#15803D" stroke-width="2"/>
    <text x="28" y="56" fill="#FFFFFF" font-size="54" font-family="Arial, Helvetica, sans-serif" transform="scale(0.55)">Button</text>

    <rect x="164" y="24" width="30" height="38" rx="6" stroke="#FFFFFF" stroke-width="4"/>
    <path d="M172 43L206 9" stroke="#FFFFFF" stroke-width="4" stroke-linecap="round"/>
    <path d="M190 9H206V25" stroke="#FFFFFF" stroke-width="4" stroke-linecap="round" stroke-linejoin="round"/>
  </g>
</svg>
